<svg width="138" height="138" viewBox="0 0 138 138" fill="none" xmlns="http://www.w3.org/2000/svg">
<path d="M69 0L78.0341 6.16614L88.4395 2.79498L95.3705 11.2566L106.304 10.9535L110.571 21.025L121.147 23.8146L122.403 34.6801L131.765 40.3364L129.909 51.1156L137.298 59.1803L132.48 69L137.298 78.8197L129.909 86.8844L131.765 97.6636L122.403 103.32L121.147 114.185L110.571 116.975L106.304 127.046L95.3705 126.743L88.4395 135.205L78.0341 131.834L69 138L59.9659 131.834L49.5605 135.205L42.6295 126.743L31.6958 127.046L27.4294 116.975L16.8533 114.185L15.5972 103.32L6.23539 97.6636L8.09139 86.8844L0.702324 78.8197L5.52 69L0.702324 59.1803L8.09139 51.1156L6.23539 40.3364L15.5972 34.6801L16.8533 23.8146L27.4294 21.025L31.6958 10.9535L42.6295 11.2566L49.5605 2.79498L59.9659 6.16614L69 0Z" fill="#C81A1A"/>
<path d="M33.9716 73.781L30.4789 58.2069L35.7503 57.0248C37.3436 56.6675 38.8286 56.6667 40.2055 57.0225C41.5899 57.3765 42.7615 58.0666 43.7202 59.0926C44.6848 60.1093 45.3406 61.3913 45.6877 62.9388C46.0382 64.5016 45.9961 65.9562 45.5614 67.3027C45.1344 68.6475 44.3714 69.7794 43.2725 70.6984C42.1794 71.6081 40.8363 72.2416 39.243 72.5989L33.9716 73.781ZM36.3572 70.3877L38.6327 69.8774C40.1345 69.5406 41.2499 68.8021 41.979 67.6618C42.7157 66.5197 42.9113 65.1788 42.566 63.6389C42.2275 62.1295 41.4822 61.0196 40.3301 60.3092C39.1856 59.5971 37.8624 59.4094 36.3607 59.7462L34.0851 60.2565L36.3572 70.3877ZM60.7799 66.9883C59.6912 67.953 58.354 68.6132 56.7684 68.9688C55.1828 69.3244 53.6918 69.2985 52.2953 68.8911C50.8989 68.4837 49.7162 67.7441 48.7473 66.6723C47.7766 65.5929 47.1152 64.2681 46.763 62.6977C46.4143 61.1426 46.45 59.6774 46.8701 58.3021C47.2903 56.9268 48.0456 55.7606 49.136 54.8035C50.2264 53.8464 51.5645 53.19 53.1501 52.8344C54.7357 52.4788 56.2259 52.5009 57.6206 52.9007C59.0229 53.2988 60.2086 54.0337 61.1775 55.1055C62.1448 56.1696 62.8019 57.4754 63.149 59.0229C63.4994 60.5857 63.4663 62.0623 63.0495 63.4528C62.6328 64.8434 61.8762 66.0218 60.7799 66.9883ZM49.8733 62.0002C50.2203 63.5477 50.9733 64.6919 52.1323 65.4328C53.2912 66.1737 54.6178 66.3766 56.1119 66.0415C57.6213 65.703 58.7418 64.9513 59.4734 63.7865C60.2126 62.6199 60.4086 61.2628 60.0616 59.7153C59.7214 58.1983 58.968 57.0702 57.8014 56.331C56.6348 55.5918 55.3006 55.3906 53.7989 55.7274C52.3047 56.0625 51.1919 56.8125 50.4603 57.9773C49.7287 59.1422 49.533 60.4832 49.8733 62.0002ZM66.653 66.4518L63.1603 50.8777L66.1105 50.2161L76.0052 59.0461L73.6459 48.5262L76.6533 47.8518L80.146 63.4259L77.1958 64.0875L67.2845 55.2371L69.6489 65.78L66.653 66.4518ZM80.0205 53.5459L80.2099 47.0541L83.4231 46.3335L82.719 52.9407L80.0205 53.5459ZM92.3706 60.6843L89.4882 47.8317L84.8572 48.8703L84.2469 46.1488L96.5621 43.387L97.1724 46.1084L92.507 47.1547L95.3894 60.0073L92.3706 60.6843ZM48.1714 95.1927L39.9904 80.67L43.135 79.9648L49.3304 91.1497L50.4418 78.3261L54.1352 77.4978L60.6164 88.6186L61.442 75.8592L64.5865 75.154L63.3681 91.7846L59.4575 92.6616L53.102 81.5126L52.1049 94.3105L48.1714 95.1927ZM66.0443 91.1845L68.2804 74.3256L72.0081 73.4896L81.2182 87.7815L78.005 88.5021L75.988 85.2915L69.7103 86.6993L69.246 90.4664L66.0443 91.1845ZM70.0605 83.7624L74.4171 82.7854L70.8483 77.1005L70.0605 83.7624ZM82.5451 87.4839L79.0524 71.9098L82.0483 71.238L85.541 86.8121L82.5451 87.4839ZM91.4418 85.4888L88.5594 72.6361L83.9283 73.6747L83.318 70.9532L95.6332 68.1914L96.2435 70.9129L91.5782 71.9591L94.4605 84.8118L91.4418 85.4888ZM100.021 78.917L96.9372 67.8989L100.31 67.1425L102.228 78.4221L100.021 78.917ZM100.132 82.0386C100.03 81.5812 100.103 81.1603 100.353 80.776C100.609 80.3823 100.97 80.1333 101.435 80.029C101.9 79.9247 102.329 79.9968 102.72 80.2451C103.111 80.4859 103.357 80.835 103.46 81.2923C103.567 81.7726 103.498 82.2125 103.251 82.6121C103.011 83.0024 102.654 83.2505 102.181 83.3565C101.709 83.4625 101.276 83.3913 100.884 83.143C100.491 82.887 100.24 82.5188 100.132 82.0386Z" fill="white"/>
</svg>
