<svg width="512" height="512" viewBox="0 0 512 512" fill="none" xmlns="http://www.w3.org/2000/svg">
<rect width="512" height="512" rx="256" fill="white"/>
<path d="M80.1484 394V135.023H129.966V347.605H239.109V394H80.1484ZM426.257 390.387C421.06 395.711 414.532 398.373 406.673 398.373C398.813 398.373 392.222 395.711 386.897 390.387C381.573 384.936 378.911 378.218 378.911 370.232C378.911 362.626 381.573 356.225 386.897 351.027C392.348 345.703 398.94 343.041 406.673 343.041C414.405 343.041 420.933 345.703 426.257 351.027C431.582 356.225 434.244 362.626 434.244 370.232C434.244 378.218 431.582 384.936 426.257 390.387Z" fill="#15171E"/>
<path d="M249.59 394V135.023H394.1V180.277H299.408V246.067H389.727V291.132H299.408V394H249.59Z" fill="#1A55C8"/>
</svg>
