<svg width="151" height="25" viewBox="0 0 151 25" fill="none" xmlns="http://www.w3.org/2000/svg">
<path d="M0.984375 24V2.71875H5.07812V20.1875H14.0469V24H0.984375ZM21.8612 24.3906C19.3508 24.3906 17.3144 23.6094 15.7519 22.0469C14.1998 20.474 13.4237 18.4583 13.4237 16C13.4237 13.5417 14.1998 11.5312 15.7519 9.96875C17.3144 8.39583 19.3508 7.60938 21.8612 7.60938C24.3925 7.60938 26.4342 8.39062 27.9862 9.95312C29.5383 11.5156 30.3144 13.5312 30.3144 16C30.3144 18.4688 29.5383 20.4844 27.9862 22.0469C26.4342 23.6094 24.3925 24.3906 21.8612 24.3906ZM18.58 12.5938C17.8092 13.4271 17.4237 14.5625 17.4237 16C17.4237 17.4375 17.8092 18.5781 18.58 19.4219C19.3612 20.2552 20.455 20.6719 21.8612 20.6719C23.2675 20.6719 24.3665 20.2552 25.1581 19.4219C25.9498 18.5781 26.3456 17.4375 26.3456 16C26.3456 14.5625 25.9498 13.4271 25.1581 12.5938C24.3665 11.75 23.2675 11.3281 21.8612 11.3281C20.455 11.3281 19.3612 11.75 18.58 12.5938ZM38.7225 24.3906C36.3162 24.3906 34.3423 23.6042 32.8006 22.0312C31.2694 20.4583 30.5037 18.4479 30.5037 16C30.5037 13.5521 31.2694 11.5417 32.8006 9.96875C34.3423 8.39583 36.3162 7.60938 38.7225 7.60938C40.7746 7.60938 42.509 8.16146 43.9256 9.26562C45.3423 10.3698 46.1756 11.6979 46.4256 13.25L42.5037 13.5625C42.2433 12.8333 41.785 12.2812 41.1287 11.9062C40.4829 11.5208 39.6808 11.3281 38.7225 11.3281C37.4517 11.3281 36.4517 11.75 35.7225 12.5938C34.9933 13.4375 34.6287 14.5729 34.6287 16C34.6287 17.4167 34.9933 18.5521 35.7225 19.4062C36.4517 20.25 37.4517 20.6719 38.7225 20.6719C39.7121 20.6719 40.5402 20.4792 41.2069 20.0938C41.8735 19.7083 42.3162 19.1354 42.535 18.375L46.5037 18.6562C46.2746 20.2604 45.4412 21.6198 44.0037 22.7344C42.5662 23.8385 40.8058 24.3906 38.7225 24.3906ZM47.4744 24V0.953125H51.4431V13.1875L57.1619 8H62.9588L55.2088 14.9062L63.6619 24H58.3181L51.4431 16.6406V24H47.4744ZM69.6325 24.3906C68.7783 24.3906 67.945 24.276 67.1325 24.0469C66.3304 23.8281 65.5752 23.4896 64.8669 23.0312C64.169 22.5625 63.5544 22.0052 63.0231 21.3594C62.4919 20.7031 62.0752 19.9167 61.7731 19C61.471 18.0729 61.32 17.0729 61.32 16C61.32 14.6562 61.5387 13.4427 61.9762 12.3594C62.4137 11.276 63.0023 10.3958 63.7419 9.71875C64.4919 9.04167 65.3408 8.52083 66.2887 8.15625C67.2471 7.79167 68.2575 7.60938 69.32 7.60938C71.8096 7.60938 73.8096 8.45833 75.32 10.1562C76.8304 11.8438 77.5179 14.0469 77.3825 16.7656H65.3825C65.5283 17.9844 65.971 18.9427 66.7106 19.6406C67.4502 20.3281 68.4242 20.6719 69.6325 20.6719C70.6117 20.6719 71.4606 20.4792 72.1794 20.0938C72.9085 19.6979 73.3825 19.125 73.6012 18.375L77.57 18.6562C77.1533 20.375 76.2575 21.7604 74.8825 22.8125C73.5179 23.8646 71.7679 24.3906 69.6325 24.3906ZM65.6325 13.9531H73.1169C72.9606 13.1823 72.5335 12.5521 71.8356 12.0625C71.1481 11.5729 70.3617 11.3281 69.4762 11.3281C68.5804 11.3281 67.7887 11.5417 67.1012 11.9688C66.4137 12.3854 65.9242 13.0469 65.6325 13.9531ZM78.6656 24V8H82.4938L82.5719 10.5C84.4365 9.59375 86.5042 8.6875 88.775 7.78125L88.8375 11.9062C86.6813 12.5833 84.6135 13.349 82.6344 14.2031V24H78.6656ZM149.378 23.7031C148.951 24.1406 148.415 24.3594 147.769 24.3594C147.123 24.3594 146.581 24.1406 146.144 23.7031C145.706 23.2552 145.488 22.7031 145.488 22.0469C145.488 21.4219 145.706 20.8958 146.144 20.4688C146.592 20.0312 147.133 19.8125 147.769 19.8125C148.404 19.8125 148.941 20.0312 149.378 20.4688C149.816 20.8958 150.034 21.4219 150.034 22.0469C150.034 22.7031 149.816 23.2552 149.378 23.7031Z" fill="#15171E"/>
<path d="M89.4644 24V2.71875H101.339V6.4375H93.5581V11.8438H100.98V15.5469H93.5581V24H89.4644ZM102.263 24V8H106.091L106.169 10.5C108.034 9.59375 110.102 8.6875 112.372 7.78125L112.435 11.9062C110.279 12.5833 108.211 13.349 106.232 14.2031V24H102.263ZM120.046 24.3906C119.192 24.3906 118.359 24.276 117.546 24.0469C116.744 23.8281 115.989 23.4896 115.281 23.0312C114.583 22.5625 113.968 22.0052 113.437 21.3594C112.906 20.7031 112.489 19.9167 112.187 19C111.885 18.0729 111.734 17.0729 111.734 16C111.734 14.6562 111.952 13.4427 112.39 12.3594C112.827 11.276 113.416 10.3958 114.156 9.71875C114.906 9.04167 115.755 8.52083 116.702 8.15625C117.661 7.79167 118.671 7.60938 119.734 7.60938C122.223 7.60938 124.223 8.45833 125.734 10.1562C127.244 11.8438 127.932 14.0469 127.796 16.7656H115.796C115.942 17.9844 116.385 18.9427 117.124 19.6406C117.864 20.3281 118.838 20.6719 120.046 20.6719C121.025 20.6719 121.874 20.4792 122.593 20.0938C123.322 19.6979 123.796 19.125 124.015 18.375L127.984 18.6562C127.567 20.375 126.671 21.7604 125.296 22.8125C123.932 23.8646 122.182 24.3906 120.046 24.3906ZM116.046 13.9531H123.531C123.374 13.1823 122.947 12.5521 122.249 12.0625C121.562 11.5729 120.775 11.3281 119.89 11.3281C118.994 11.3281 118.202 11.5417 117.515 11.9688C116.827 12.3854 116.338 13.0469 116.046 13.9531ZM136.626 24.3906C135.772 24.3906 134.939 24.276 134.126 24.0469C133.324 23.8281 132.569 23.4896 131.861 23.0312C131.163 22.5625 130.548 22.0052 130.017 21.3594C129.486 20.7031 129.069 19.9167 128.767 19C128.465 18.0729 128.314 17.0729 128.314 16C128.314 14.6562 128.533 13.4427 128.97 12.3594C129.408 11.276 129.996 10.3958 130.736 9.71875C131.486 9.04167 132.335 8.52083 133.283 8.15625C134.241 7.79167 135.251 7.60938 136.314 7.60938C138.803 7.60938 140.803 8.45833 142.314 10.1562C143.824 11.8438 144.512 14.0469 144.376 16.7656H132.376C132.522 17.9844 132.965 18.9427 133.704 19.6406C134.444 20.3281 135.418 20.6719 136.626 20.6719C137.605 20.6719 138.454 20.4792 139.173 20.0938C139.902 19.6979 140.376 19.125 140.595 18.375L144.564 18.6562C144.147 20.375 143.251 21.7604 141.876 22.8125C140.512 23.8646 138.762 24.3906 136.626 24.3906ZM132.626 13.9531H140.111C139.954 13.1823 139.527 12.5521 138.829 12.0625C138.142 11.5729 137.355 11.3281 136.47 11.3281C135.574 11.3281 134.783 11.5417 134.095 11.9688C133.408 12.3854 132.918 13.0469 132.626 13.9531Z" fill="#1A55C8"/>
</svg>
