<svg width="24" height="24" viewBox="0 0 24 24" fill="none" xmlns="http://www.w3.org/2000/svg">
<path fill-rule="evenodd" clip-rule="evenodd" d="M12 2.48285C12.6855 2.48285 13.2413 3.03863 13.2413 3.72422L13.2413 20.2758C13.2413 20.9614 12.6855 21.5172 12 21.5172C11.3144 21.5172 10.7586 20.9614 10.7586 20.2758L10.7586 3.72422C10.7586 3.03863 11.3144 2.48285 12 2.48285ZM18.6208 7.44832C19.3064 7.44832 19.8622 8.0041 19.8622 8.68969V15.3103C19.8622 15.9959 19.3064 16.5517 18.6208 16.5517C17.9352 16.5517 17.3794 15.9959 17.3794 15.3103V8.68969C17.3794 8.0041 17.9352 7.44832 18.6208 7.44832ZM6.6208 8.68969C6.6208 8.0041 6.06502 7.44832 5.37943 7.44832C4.69384 7.44832 4.13806 8.0041 4.13806 8.68969L4.13806 15.3103C4.13806 15.9959 4.69384 16.5517 5.37943 16.5517C6.06502 16.5517 6.6208 15.9959 6.6208 15.3103L6.6208 8.68969Z" fill="white"/>
</svg>
