<svg width="80" height="80" viewBox="0 0 80 80" fill="none" xmlns="http://www.w3.org/2000/svg">
<circle cx="47" cy="47" r="33" fill="#1A55C8" fill-opacity="0.1"/>
<path fill-rule="evenodd" clip-rule="evenodd" d="M16 3.33334C9.00437 3.33334 3.33331 9.0044 3.33331 16V48C3.33331 54.9956 9.00437 60.6667 16 60.6667H58.6666C59.7712 60.6667 60.6666 59.7712 60.6666 58.6667C60.6666 57.5621 59.7712 56.6667 58.6666 56.6667H16C11.2135 56.6667 7.33331 52.7865 7.33331 48V16C7.33331 11.2135 11.2135 7.33334 16 7.33334H48C52.7864 7.33334 56.6666 11.2135 56.6666 16V26.6667C56.6666 27.7712 57.5621 28.6667 58.6666 28.6667C59.7712 28.6667 60.6666 27.7712 60.6666 26.6667V16C60.6666 9.0044 54.9956 3.33334 48 3.33334H16ZM32 14C33.1045 14 34 14.8954 34 16V27.0543C35.9545 27.8455 37.3333 29.7618 37.3333 32C37.3333 34.9455 34.9455 37.3333 32 37.3333C31.2609 37.3333 30.557 37.183 29.9171 36.9113L25.4142 41.4142C24.6331 42.1953 23.3668 42.1953 22.5858 41.4142C21.8047 40.6332 21.8047 39.3668 22.5858 38.5858L27.0887 34.0829C26.817 33.443 26.6666 32.739 26.6666 32C26.6666 29.7618 28.0454 27.8455 30 27.0543V16C30 14.8954 30.8954 14 32 14ZM40.6666 48C40.6666 46.8954 41.5621 46 42.6666 46H58.6666C59.7712 46 60.6666 46.8954 60.6666 48C60.6666 49.1046 59.7712 50 58.6666 50H42.6666C41.5621 50 40.6666 49.1046 40.6666 48ZM48 35.3333C46.8954 35.3333 46 36.2288 46 37.3333C46 38.4379 46.8954 39.3333 48 39.3333H58.6666C59.7712 39.3333 60.6666 38.4379 60.6666 37.3333C60.6666 36.2288 59.7712 35.3333 58.6666 35.3333H48Z" fill="#1A55C8"/>
</svg>
