<svg width="80" height="80" viewBox="0 0 80 80" fill="none" xmlns="http://www.w3.org/2000/svg">
<circle cx="47" cy="47" r="33" fill="#1A55C8" fill-opacity="0.1"/>
<path d="M45.3334 42.6665V54.7277C45.3334 56.6143 43.4279 57.9043 41.6763 57.2037L32.9904 53.7293C32.3546 53.475 31.6454 53.475 31.0096 53.7293L22.3237 57.2037C20.5721 57.9043 18.6667 56.6143 18.6667 54.7277V42.6665" stroke="#1A55C8" stroke-width="3.5" stroke-linejoin="round"/>
<path d="M28.2462 6.71587C30.4093 4.87249 33.5908 4.87249 35.7539 6.71587L37.6613 8.34141C38.5883 9.13134 39.7408 9.60872 40.9548 9.7056L43.453 9.90496C46.286 10.131 48.5357 12.3807 48.7617 15.2137L48.9611 17.7119C49.058 18.9259 49.5354 20.0784 50.3253 21.0054L51.9508 22.9128C53.7942 25.0759 53.7942 28.2574 51.9508 30.4205L50.3253 32.328C49.5354 33.2549 49.058 34.4074 48.9611 35.6214L48.7617 38.1196C48.5357 40.9527 46.286 43.2023 43.453 43.4284L40.9548 43.6277C39.7408 43.7246 38.5883 44.202 37.6613 44.9919L35.7539 46.6175C33.5908 48.4608 30.4093 48.4608 28.2462 46.6175L26.3387 44.9919C25.4118 44.202 24.2593 43.7246 23.0453 43.6277L20.547 43.4284C17.714 43.2023 15.4644 40.9527 15.2383 38.1196L15.039 35.6214C14.9421 34.4074 14.4647 33.2549 13.6748 32.328L12.0492 30.4205C10.2058 28.2574 10.2058 25.0759 12.0492 22.9128L13.6748 21.0054C14.4647 20.0784 14.9421 18.9259 15.039 17.7119L15.2383 15.2137C15.4644 12.3807 17.714 10.131 20.547 9.90496L23.0453 9.7056C24.2593 9.60872 25.4118 9.13134 26.3387 8.34141L28.2462 6.71587Z" stroke="#1A55C8" stroke-width="3.5"/>
</svg>
