<svg width="24" height="24" viewBox="0 0 24 24" fill="none" xmlns="http://www.w3.org/2000/svg">
<path d="M11.7416 17.9259C11.9005 17.83 12.0995 17.83 12.2584 17.9259L17.1655 20.8877C17.5442 21.1162 18.0113 20.7767 17.9108 20.346L16.6086 14.7639C16.5664 14.5832 16.6278 14.3939 16.7681 14.2724L21.1043 10.5159C21.4386 10.2263 21.2599 9.67721 20.8192 9.63982L15.1104 9.15549C14.9256 9.13981 14.7647 9.02314 14.6923 8.85239L12.4604 3.58619C12.2881 3.17967 11.7119 3.17967 11.5396 3.58618L9.30766 8.85239C9.23529 9.02314 9.07436 9.13981 8.88957 9.15549L3.18081 9.63982C2.7401 9.67721 2.5614 10.2263 2.8957 10.5159L7.2319 14.2724C7.37218 14.3939 7.4336 14.5832 7.39144 14.7639L6.08921 20.346C5.98873 20.7767 6.45584 21.1162 6.8345 20.8877L11.7416 17.9259Z" fill="white"/>
</svg>
